<?xml version="1.0" encoding="UTF-8" standalone="no"?>
<svg
   xmlns:dc="http://purl.org/dc/elements/1.1/"
   xmlns:cc="http://creativecommons.org/ns#"
   xmlns:rdf="http://www.w3.org/1999/02/22-rdf-syntax-ns#"
   xmlns:svg="http://www.w3.org/2000/svg"
   xmlns="http://www.w3.org/2000/svg"
   xmlns:sodipodi="http://sodipodi.sourceforge.net/DTD/sodipodi-0.dtd"
   xmlns:inkscape="http://www.inkscape.org/namespaces/inkscape"
   version="1.1"
   id="svg2"
   xml:space="preserve"
   width="625.91998"
   height="132.05333"
   viewBox="0 0 625.91998 132.05333"
   sodipodi:docname="ZAS_Marke-Lang_weiss.eps"><metadata
     id="metadata8"><rdf:RDF><cc:Work
         rdf:about=""><dc:format>image/svg+xml</dc:format><dc:type
           rdf:resource="http://purl.org/dc/dcmitype/StillImage" /></cc:Work></rdf:RDF></metadata><defs
     id="defs6"><clipPath
       clipPathUnits="userSpaceOnUse"
       id="clipPath28"><path
         d="M 0,0 H 4694 V 990 H 0 Z"
         id="path26" /></clipPath><clipPath
       clipPathUnits="userSpaceOnUse"
       id="clipPath34"><path
         d="M 1216.04,260.273 H 4694.41 V 817.824 H 1216.04 Z"
         id="path32" /></clipPath></defs><sodipodi:namedview
     pagecolor="#ffffff"
     bordercolor="#666666"
     borderopacity="1"
     objecttolerance="10"
     gridtolerance="10"
     guidetolerance="10"
     inkscape:pageopacity="0"
     inkscape:pageshadow="2"
     inkscape:window-width="640"
     inkscape:window-height="480"
     id="namedview4" /><g
     id="g10"
     inkscape:groupmode="layer"
     inkscape:label="ink_ext_XXXXXX"
     transform="matrix(1.3333333,0,0,-1.3333333,0,132.05333)"><g
       id="g12"
       transform="scale(0.1)"><path
         d="M 770.551,798.84 444.758,276.301 852.938,153.379 c 84.933,88.906 137.417,209.113 137.417,341.797 0,273.488 -221.687,495.176 -495.175,495.176 -147.95,0 -280.344,-65.204 -371.071,-168.055 L 770.551,798.84 v 0"
         style="fill:#ffffff;fill-opacity:1;fill-rule:nonzero;stroke:none"
         id="path14" /><path
         d="M 425.168,244.902 298.063,41.0156 C 358.496,14.7383 425.094,0 495.18,0 621.246,0 735.906,47.4609 823.316,125.051 L 425.168,244.902 v 0"
         style="fill:#ffffff;fill-opacity:1;fill-rule:nonzero;stroke:none"
         id="path16" /><path
         d="M 175.453,357.375 409.348,286.934 707.672,765.383 96.1953,787.551 C 35.9727,705.578 0,604.68 0,495.176 0,316.309 95.1523,160.109 237.242,73.0781 L 175.453,357.375 v 0"
         style="fill:#ffffff;fill-opacity:1;fill-rule:nonzero;stroke:none"
         id="path18" /><path
         d="M 389.75,255.566 223.191,305.723 274.355,70.4688 389.75,255.566 v 0"
         style="fill:#ffffff;fill-opacity:1;fill-rule:nonzero;stroke:none"
         id="path20" /><g
         id="g22"><g
           id="g24"
           clip-path="url(#clipPath28)"><g
             id="g30"
             clip-path="url(#clipPath34)"><path
               d="m 1360.3,321.641 -62.71,173.058 h -27.72 l 5.92,-14.531 -59.75,-158.527 h 24.22 l 14.53,40.636 h 62.71 l 14.81,-40.636 z m -49.79,60.285 h -48.99 l 24.5,68.367 z m 97.16,-60.285 v 191.632 l -23.42,-8.613 V 321.641 Z m 69.42,0 v 191.632 l -23.4,-8.613 V 321.641 Z m 165.8,120.851 h -39.29 c -6.46,2.422 -19.11,5.918 -32.03,5.918 -29.61,0 -57.33,-12.109 -57.33,-44.414 0,-17.5 11.58,-30.148 25.3,-36.066 -9.96,-6.192 -18.3,-15.067 -18.3,-26.102 0,-6.457 4.58,-16.418 15.34,-18.84 -15.61,-5.664 -26.91,-16.152 -26.91,-30.144 0,-22.344 23.67,-31.77 50.6,-31.77 40.1,0 69.17,22.617 69.17,48.184 0,20.722 -17.23,27.988 -34.18,27.988 h -29.07 c -13.46,0 -24.76,4.043 -24.76,13.469 0,5.371 4.3,11.023 8.07,13.711 6.19,-2.149 12.11,-2.414 18.57,-2.414 29.34,0 53.56,18.027 53.56,52.492 0,2.684 0,5.918 -0.54,8.875 h 15.08 z m -45.48,-35.265 c 0,-14.266 -8.88,-29.61 -29.08,-29.61 -17.49,0 -29.86,10.235 -29.86,26.379 0,19.656 14.26,28.809 32.83,28.809 10.23,0 16.15,-2.168 23.42,-5.129 2.15,-6.727 2.69,-12.645 2.69,-20.449 m 8.34,-104.422 c 0,-13.731 -13.99,-26.387 -38.22,-26.387 -16.69,0 -36.07,3.77 -36.07,22.344 0,10.222 7.54,16.961 11.04,19.109 l 39.3,-1.336 c 14.8,-0.547 23.95,-1.621 23.95,-13.73 m 152.34,102.8 c 0,29.348 -17.77,42.805 -45.76,42.805 -36.33,0 -58.67,-29.609 -58.67,-66.484 0,-35.528 19.91,-64.055 56.79,-64.055 13.45,0 28.26,2.688 36.6,6.731 l 5.92,21.796 c -11.03,-5.644 -23.95,-8.339 -36.87,-8.339 -25.57,0 -38.76,18.574 -38.76,40.097 v 5.926 l 78.86,2.961 c 1.08,4.844 1.89,13.73 1.89,18.562 m -23.96,6.465 c 0,-2.422 -0.27,-6.191 -1.34,-10.222 l -54.37,-2.434 c 1.34,15.344 13.19,33.652 33.37,33.652 13.46,0 22.34,-8.074 22.34,-20.996 m 231.47,-90.429 v 89.093 c 0,25.567 -13.46,36.864 -34.99,36.864 -12.38,0 -27.46,-2.957 -41.99,-15.879 h -0.81 c -5.65,11.574 -16.68,16.691 -30.95,16.691 -12.38,0 -26.65,-3.769 -39.02,-15.605 v 15.332 l -23.42,-6.184 V 321.641 h 23.42 v 96.347 c 4.03,4.582 15.87,12.649 25.56,12.649 19.92,0 25.03,-8.879 25.03,-33.098 v -75.898 h 23.42 v 89.894 c 0,2.422 0,4.844 -0.27,6.992 4.31,4.578 16.15,11.309 25.57,11.309 19.92,0 25.03,-8.887 25.03,-33.106 v -75.089 z m 139.68,83.964 c 0,29.348 -17.76,42.805 -45.76,42.805 -36.33,0 -58.68,-29.609 -58.68,-66.484 0,-35.528 19.93,-64.055 56.8,-64.055 13.46,0 28.26,2.688 36.6,6.731 l 5.93,21.796 c -11.04,-5.644 -23.96,-8.339 -36.88,-8.339 -25.58,0 -38.75,18.574 -38.75,40.097 v 5.926 l 78.85,2.961 c 1.08,4.844 1.89,13.73 1.89,18.562 m -23.96,6.465 c 0,-2.422 -0.27,-6.191 -1.34,-10.222 l -54.37,-2.434 c 1.35,15.344 13.19,33.652 33.38,33.652 13.45,0 22.33,-8.074 22.33,-20.996 m 83.71,-90.429 v 127.043 l -23.42,-8.625 V 321.641 Z m 5.38,173.332 c 0,8.601 -6.73,14.793 -15.88,14.793 -9.42,0 -15.88,-6.192 -15.88,-14.793 0,-8.614 6.46,-14.805 15.88,-14.805 9.15,0 15.88,5.918 15.88,14.805 m 139.41,-173.332 v 89.894 c 0,25.567 -13.45,36.875 -34.98,36.875 -12.38,0 -27.99,-3.769 -40.37,-15.605 v 15.332 l -23.43,-6.184 V 321.641 h 23.43 v 96.347 c 4.03,4.582 17.22,12.649 26.91,12.649 19.92,0 25.03,-8.879 25.03,-33.098 v -75.898 z m 139.69,83.964 c 0,29.348 -17.76,42.805 -45.76,42.805 -36.33,0 -58.67,-29.609 -58.67,-66.484 0,-35.528 19.92,-64.055 56.79,-64.055 13.46,0 28.26,2.688 36.6,6.731 l 5.92,21.796 c -11.04,-5.644 -23.95,-8.339 -36.88,-8.339 -25.56,0 -38.75,18.574 -38.75,40.097 v 5.926 l 78.87,2.961 c 1.06,4.844 1.88,13.73 1.88,18.562 m -23.95,6.465 c 0,-2.422 -0.27,-6.191 -1.35,-10.222 l -54.37,-2.434 c 1.35,15.344 13.18,33.652 33.38,33.652 13.44,0 22.34,-8.074 22.34,-20.996 m 211.8,-44.675 c 0,21.804 -18.03,35.253 -30.67,43.066 l -15.89,9.961 c -13.19,8.34 -25.84,15.34 -25.84,29.324 0,17.5 15.62,26.113 32.57,26.113 15.88,0 28.52,-7.539 37.15,-16.961 v 27.188 c -6.19,4.57 -22.89,10.762 -37.15,10.762 -34.2,0 -57.87,-19.641 -57.87,-50.059 0,-16.68 9.42,-31.223 32.03,-44.941 l 15.88,-9.688 c 7,-4.308 23.42,-12.121 23.42,-27.187 0,-15.618 -15.08,-25.84 -30.68,-25.84 -18.58,0 -32.03,7 -44.14,16.687 l 3.77,-29.597 c 12.11,-4.582 26.36,-8.086 41.97,-8.086 31.76,0 55.45,19.656 55.45,49.258 m 149.1,19.91 c 0,31.222 -16.95,61.105 -50.06,61.105 -16.15,0 -28.53,-7.004 -37.13,-15.07 v 15.344 l -23.44,-6.731 V 260.266 l 23.44,7.812 v 56.797 c 7.52,-5.656 20.45,-7.551 26.1,-7.551 34.98,0 61.09,27.461 61.09,69.981 m -24.75,-7.266 c 0,-25.027 -14.53,-46.023 -37.14,-46.023 -16.16,0 -25.3,11.308 -25.3,29.07 v 60.832 c 4.03,1.883 13.46,5.379 20.98,5.379 29.61,0 41.46,-19.375 41.46,-49.258 m 133.75,58.684 c -4.29,5.379 -8.88,9.687 -18.3,9.687 -10.76,0 -20.19,-5.39 -32.03,-25.84 v 26.114 l -23.4,-6.731 V 321.641 h 23.4 v 82.902 c 4.59,6.727 15.08,20.984 22.07,20.984 l 11.58,-8.339 z m 117.35,-103.086 c -14.81,1.883 -19.38,-0.266 -19.1,14.804 l 1.07,71.043 c 0.27,17.239 -10.76,27.2 -30.68,27.2 -26.12,0 -47.37,-15.618 -57.87,-28.801 l 14,-13.731 17.23,16.145 c 3.49,3.504 11.29,8.613 17.75,8.613 12.93,0 16.15,-8.879 16.15,-20.449 v -17.227 l -38.49,-10.761 c -16.14,-4.582 -29.87,-15.078 -29.87,-35.539 0,-16.688 12.91,-29.063 30.14,-29.063 17.23,0 30.14,7.266 37.95,14.805 3.77,-14.266 16.97,-14.805 22.07,-14.805 3.5,0 9.96,1.348 15.35,3.77 z m -41.45,8.613 c -5.92,-4.043 -17.77,-8.613 -30.15,-8.613 -11.02,0 -15.34,7.801 -15.34,16.679 0,12.383 10.24,15.887 18.85,18.301 l 26.64,7.813 z m 164.18,79.93 c -7.81,18.039 -25.29,24.23 -41.72,24.23 -32.03,0 -59.74,-25.84 -59.74,-67.285 0,-38.496 20.72,-63.254 56.25,-63.254 11.56,0 26.38,2.961 35.52,9.688 l 4.57,19.921 c -8.88,-4.851 -19.9,-9.421 -33.37,-9.421 -27.19,0 -38.21,19.382 -38.21,47.097 0,30.149 18.56,46.563 34.18,46.563 h 4.85 l 19.9,-19.383 z M 3261.5,321.641 v 89.894 c 0,25.567 -13.46,36.875 -34.98,36.875 -12.38,0 -27.99,-3.769 -40.39,-15.605 v 80.73 l -23.4,-6.191 V 321.641 h 23.4 v 96.347 c 4.04,4.582 17.24,12.649 26.93,12.649 19.92,0 25.02,-8.879 25.02,-33.098 v -75.898 z m 197.81,122.461 h -21.8 l -30.68,-95.809 -27.17,95.809 h -25.04 l 10.77,-35.262 -25.57,-60.547 -28.26,95.809 h -24.77 l 39.03,-125.965 20.19,6.738 26.64,60.281 21,-67.019 22.07,6.465 z m 47.38,-122.461 v 127.043 l -23.41,-8.625 V 321.641 Z m 5.38,173.332 c 0,8.601 -6.72,14.793 -15.88,14.793 -9.42,0 -15.88,-6.192 -15.88,-14.793 0,-8.614 6.46,-14.805 15.88,-14.805 9.16,0 15.88,5.918 15.88,14.805 m 116.01,-141.035 c 0,21.257 -12.66,30.41 -28.01,36.601 l -17.75,7 c -9.96,4.043 -15.88,8.066 -15.88,17.766 0,11.57 11.56,15.605 21.25,15.605 10.78,0 22.34,-4.297 31.5,-9.426 l 7.27,18.301 c -9.69,4.856 -25.31,8.625 -39.04,8.625 -22.07,0 -43.87,-12.383 -43.87,-35.801 0,-19.648 11.31,-29.336 27.19,-35.527 l 15.88,-6.191 c 8.08,-3.235 18.04,-8.067 18.04,-18.028 0,-11.035 -9.16,-17.226 -21.54,-17.226 -11.04,0 -23.42,4.843 -33.38,10.222 l -8.61,-17.761 c 15.35,-7.266 30.95,-10.227 42.81,-10.227 22.87,0 44.14,11.582 44.14,36.067 m 111.15,0 c 0,21.257 -12.65,30.41 -28,36.601 l -17.76,7 c -9.96,4.043 -15.88,8.066 -15.88,17.766 0,11.57 11.57,15.605 21.27,15.605 10.76,0 22.33,-4.297 31.49,-9.426 l 7.26,18.301 c -9.69,4.856 -25.29,8.625 -39.02,8.625 -22.07,0 -43.87,-12.383 -43.87,-35.801 0,-19.648 11.29,-29.336 27.17,-35.527 l 15.88,-6.191 c 8.08,-3.235 18.03,-8.067 18.03,-18.028 0,-11.035 -9.14,-17.226 -21.53,-17.226 -11.03,0 -23.4,4.843 -33.36,10.222 l -8.61,-17.761 c 15.33,-7.266 30.94,-10.227 42.79,-10.227 22.87,0 44.14,11.582 44.14,36.067 m 129.46,51.667 c 0,29.348 -17.78,42.805 -45.77,42.805 -36.32,0 -58.67,-29.609 -58.67,-66.484 0,-35.528 19.91,-64.055 56.8,-64.055 13.44,0 28.26,2.688 36.6,6.731 l 5.92,21.796 c -11.04,-5.644 -23.95,-8.339 -36.88,-8.339 -25.56,0 -38.75,18.574 -38.75,40.097 v 5.926 l 78.85,2.961 c 1.08,4.844 1.9,13.73 1.9,18.562 m -23.97,6.465 c 0,-2.422 -0.27,-6.191 -1.33,-10.222 l -54.37,-2.434 c 1.33,15.344 13.18,33.652 33.36,33.652 13.45,0 22.34,-8.074 22.34,-20.996 m 159.08,-90.429 v 89.894 c 0,25.567 -13.47,36.875 -35,36.875 -12.38,0 -27.98,-3.769 -40.37,-15.605 v 15.332 l -23.42,-6.184 V 321.641 h 23.42 v 96.347 c 4.03,4.582 17.23,12.649 26.92,12.649 19.92,0 25.02,-8.879 25.02,-33.098 v -75.898 z m 121.37,32.297 c 0,21.257 -12.64,30.41 -27.99,36.601 l -17.77,7 c -9.96,4.043 -15.88,8.066 -15.88,17.766 0,11.57 11.58,15.605 21.27,15.605 10.76,0 22.34,-4.297 31.5,-9.426 l 7.25,18.301 c -9.69,4.856 -25.29,8.625 -39.02,8.625 -22.07,0 -43.87,-12.383 -43.87,-35.801 0,-19.648 11.31,-29.336 27.19,-35.527 l 15.88,-6.191 c 8.06,-3.235 18.02,-8.067 18.02,-18.028 0,-11.035 -9.14,-17.226 -21.52,-17.226 -11.04,0 -23.42,4.843 -33.38,10.222 l -8.61,-17.761 c 15.35,-7.266 30.95,-10.227 42.79,-10.227 22.89,0 44.14,11.582 44.14,36.067 m 126.49,70.242 c -7.8,18.039 -25.3,24.23 -41.7,24.23 -32.04,0 -59.75,-25.84 -59.75,-67.285 0,-38.496 20.72,-63.254 56.25,-63.254 11.56,0 26.37,2.961 35.51,9.688 l 4.59,19.921 c -8.89,-4.851 -19.92,-9.421 -33.38,-9.421 -27.19,0 -38.22,19.382 -38.22,47.097 0,30.149 18.57,46.563 34.18,46.563 h 4.84 l 19.92,-19.383 z m 125.97,-102.539 v 89.894 c 0,25.567 -13.46,36.875 -35,36.875 -12.38,0 -27.99,-3.769 -40.37,-15.605 v 80.73 l -23.4,-6.191 V 321.641 h 23.4 v 96.347 c 4.04,4.582 17.23,12.649 26.93,12.649 19.91,0 25.02,-8.879 25.02,-33.098 v -75.898 z m 145.06,13.996 c -14.8,1.883 -19.37,-0.266 -19.1,14.804 l 1.07,71.043 c 0.28,17.239 -10.76,27.2 -30.68,27.2 -26.11,0 -47.36,-15.618 -57.87,-28.801 l 14,-13.731 17.23,16.145 c 3.49,3.504 11.29,8.613 17.75,8.613 12.93,0 16.16,-8.879 16.16,-20.449 v -17.227 l -38.5,-10.761 c -16.13,-4.582 -29.86,-15.078 -29.86,-35.539 0,-16.688 12.91,-29.063 30.13,-29.063 17.23,0 30.16,7.266 37.95,14.805 3.77,-14.266 16.97,-14.805 22.07,-14.805 3.5,0 9.96,1.348 15.35,3.77 z m -41.44,8.613 c -5.92,-4.043 -17.76,-8.613 -30.14,-8.613 -11.04,0 -15.35,7.801 -15.35,16.679 0,12.383 10.23,15.887 18.84,18.301 l 26.65,7.813 z m 162.3,163.367 c -8.63,4.309 -17.5,7.278 -31.23,7.278 -35.25,0 -54.36,-25.84 -54.36,-62.715 v -9.961 h -15.35 l -6.19,-18.567 h 21.54 V 321.641 h 23.4 v 102.011 h 24.49 l 6.2,18.567 h -30.69 v 18.574 c 0,24.754 13.73,37.676 25.57,37.676 h 4.59 l 22.34,-8.606 z m 50.86,-63.515 h -36.33 l 2.68,36.601 -25.84,-11.308 v -25.293 h -15.61 l -8.87,-18.575 h 24.48 v -70.789 c 0,-26.64 8.88,-36.867 30.68,-36.867 8.36,0 14.55,2.16 22.62,4.035 l 5.37,20.457 c -4.57,-2.422 -10.76,-5.379 -19.1,-5.379 -11.31,0 -16.41,5.118 -16.41,21.524 v 67.019 h 28.26 l 8.07,18.575"
               style="fill:#ffffff;fill-opacity:1;fill-rule:nonzero;stroke:none"
               id="path36" /><path
               d="m 1338.23,647.453 h -69.17 v 152.07 h -25.57 V 626.73 h 83.97 z m 117.35,63.25 c 0,29.336 -17.77,42.785 -45.76,42.785 -36.33,0 -58.67,-29.601 -58.67,-66.476 0,-35.516 19.91,-64.051 56.79,-64.051 13.45,0 28.26,2.695 36.6,6.727 l 5.92,21.808 c -11.03,-5.656 -23.95,-8.359 -36.87,-8.359 -25.57,0 -38.76,18.574 -38.76,40.117 v 5.918 l 78.86,2.957 c 1.08,4.844 1.89,13.723 1.89,18.574 m -23.96,6.457 c 0,-2.422 -0.27,-6.191 -1.34,-10.226 l -54.37,-2.422 c 1.34,15.343 13.19,33.644 33.37,33.644 13.46,0 22.34,-8.078 22.34,-20.996 m 83.71,-90.43 v 127.032 l -23.42,-8.614 V 626.73 Z m 5.38,173.329 c 0,8.613 -6.73,14.804 -15.88,14.804 -9.42,0 -15.88,-6.191 -15.88,-14.804 0,-8.621 6.46,-14.805 15.88,-14.805 9.15,0 15.88,5.918 15.88,14.805 m 151.26,-107.93 c 0,32.832 -17.77,61.359 -50.33,61.359 -12.92,0 -25.57,-4.297 -37.15,-15.07 v 79.406 l -23.14,-7.812 V 622.148 l 19.64,9.961 c 6.46,-5.379 19.11,-9.148 30.68,-9.148 38.49,0 60.3,31.758 60.3,69.168 m -24.77,-5.379 c 0,-20.734 -9.95,-47.109 -37.14,-47.109 -7.53,0 -18.03,3.496 -25.3,9.687 v 79.402 c 5.65,3.77 13.99,5.645 20.45,5.645 30.96,0 41.99,-21.258 41.99,-47.625 M 1806,626.73 v 89.891 c 0,25.567 -13.46,36.867 -34.99,36.867 -12.38,0 -27.99,-3.761 -40.38,-15.605 v 15.34 l -23.41,-6.192 V 626.73 h 23.41 v 96.348 c 4.04,4.578 17.23,12.656 26.92,12.656 19.92,0 25.03,-8.886 25.03,-33.117 V 626.73 Z m 69.42,0 v 127.032 l -23.4,-8.614 V 626.73 Z m 5.4,173.329 c 0,8.613 -6.73,14.804 -15.88,14.804 -9.42,0 -15.88,-6.191 -15.88,-14.804 0,-8.621 6.46,-14.805 15.88,-14.805 9.15,0 15.88,5.918 15.88,14.805 m 120.57,-153.692 h -65.67 l 60.83,90.715 v 12.109 H 1915 l -7.27,-19.386 h 58.4 l -61.36,-93.399 v -9.676 h 91.51 z m 86.13,41.719 -1.89,21.262 -64.86,-7.532 1.88,-21.269 z m 149.36,-40.371 h -94.46 l 88.55,151.808 h -123.81 v -19.921 h 85.05 L 2102.59,626.73 h 126.22 z m 114.93,62.988 c 0,29.336 -17.77,42.785 -45.76,42.785 -36.33,0 -58.67,-29.601 -58.67,-66.476 0,-35.516 19.91,-64.051 56.78,-64.051 13.47,0 28.26,2.695 36.62,6.727 l 5.92,21.808 c -11.04,-5.656 -23.97,-8.359 -36.88,-8.359 -25.56,0 -38.75,18.574 -38.75,40.117 v 5.918 l 78.85,2.957 c 1.09,4.844 1.89,13.723 1.89,18.574 m -23.96,6.457 c 0,-2.422 -0.26,-6.191 -1.35,-10.226 l -54.35,-2.422 c 1.34,15.343 13.18,33.644 33.37,33.644 13.46,0 22.33,-8.078 22.33,-20.996 m 159.06,-90.43 v 89.891 c 0,25.567 -13.44,36.867 -34.98,36.867 -12.38,0 -27.99,-3.761 -40.37,-15.605 v 15.34 l -23.42,-6.192 V 626.73 h 23.42 v 96.348 c 4.04,4.578 17.22,12.656 26.91,12.656 19.92,0 25.04,-8.886 25.04,-33.117 V 626.73 Z m 106.85,122.461 h -36.32 l 2.69,36.602 -25.84,-11.301 v -25.301 h -15.62 l -8.87,-18.574 h 24.49 v -70.781 c 0,-26.641 8.87,-36.875 30.67,-36.875 8.36,0 14.55,2.148 22.61,4.031 l 5.39,20.461 c -4.57,-2.422 -10.76,-5.383 -19.12,-5.383 -11.29,0 -16.4,5.11 -16.4,21.535 v 67.012 h 28.26 z m 99.32,-5.39 c -4.3,5.39 -8.89,9.687 -18.3,9.687 -10.76,0 -20.2,-5.383 -32.03,-25.832 v 26.106 l -23.42,-6.731 V 626.73 h 23.42 v 82.891 c 4.57,6.727 15.08,20.996 22.07,20.996 l 11.58,-8.351 z m 116.54,-114.375 v 124.336 l -22.89,-6.465 v -93.926 c -6.99,-6.73 -20.45,-12.648 -28.26,-12.648 -19.37,0 -23.67,8.34 -23.67,35.8 v 77.239 l -23.42,-6.731 V 662.52 c 0,-26.641 12.91,-39.559 34.44,-39.559 14.27,0 29.62,6.191 40.91,15.613 v -17.773 z m 217.19,-2.696 v 89.083 c 0,25.566 -13.46,36.875 -34.98,36.875 -12.38,0 -27.46,-2.961 -41.99,-15.879 h -0.8 c -5.67,11.57 -16.7,16.679 -30.96,16.679 -12.38,0 -26.64,-3.761 -39.02,-15.605 v 15.34 l -23.42,-6.192 V 626.73 h 23.42 v 96.348 c 4.04,4.578 15.88,12.656 25.56,12.656 19.91,0 25.04,-8.886 25.04,-33.117 V 626.73 h 23.4 v 89.891 c 0,2.422 0,4.836 -0.27,7.004 4.31,4.57 16.15,11.297 25.58,11.297 19.91,0 25.02,-8.887 25.02,-33.106 V 626.73 h 23.42"
               style="fill:#ffffff;fill-opacity:1;fill-rule:nonzero;stroke:none"
               id="path38" /></g></g></g></g></g></svg>
